<?xml version="1.0" encoding="iso-8859-1"?>
<!-- Generator: Adobe Illustrator 19.0.0, SVG Export Plug-In . SVG Version: 6.00 Build 0)  -->
<svg version="1.1" id="Layer_1" xmlns="http://www.w3.org/2000/svg" xmlns:xlink="http://www.w3.org/1999/xlink" x="0px" y="0px"
	 viewBox="0 0 512 512" style="enable-background:new 0 0 512 512;" xml:space="preserve">
<g>
	<g>
		<path d="M473.569,136.529c-3.225-12.526-8.189-24.351-14.609-35.216l27.189-27.189l-48.27-48.272l-27.19,27.189
			c-10.865-6.421-22.691-11.385-35.218-14.609V0h-68.267v38.431c-12.527,3.224-24.352,8.19-35.216,14.61l-27.193-27.191
			l-48.273,48.272l27.191,27.19c-6.421,10.865-11.386,22.69-14.61,35.217h-38.431v68.267h38.43
			c3.223,12.527,8.189,24.353,14.609,35.218l-27.19,27.189l48.273,48.273l27.189-27.189c10.865,6.421,22.69,11.386,35.217,14.61
			v38.429h68.267v-38.428c12.528-3.223,24.354-8.19,35.219-14.61l27.189,27.189l48.273-48.272l-27.189-27.189
			c6.421-10.865,11.386-22.691,14.61-35.22h38.429v0l0.001-68.266L473.569,136.529z M341.336,273.064
			c-56.465,0-102.401-45.936-102.401-102.401c0-56.465,45.937-102.401,102.401-102.401s102.401,45.936,102.401,102.401
			C443.737,227.128,397.8,273.064,341.336,273.064z"/>
	</g>
</g>
<g>
	<g>
		<path d="M341.336,113.773c-31.419,0-56.89,25.471-56.89,56.889c0,31.419,25.471,56.89,56.89,56.89s56.89-25.471,56.89-56.89
			C398.226,139.244,372.755,113.773,341.336,113.773z M341.336,193.419c-12.548,0-22.756-10.209-22.756-22.756
			c0-12.546,10.208-22.756,22.756-22.756s22.756,10.209,22.756,22.756C364.092,183.209,353.884,193.419,341.336,193.419z"/>
	</g>
</g>
<g>
	<g>
		<path d="M227.557,420.974V375.47h-25.622c-2.149-8.353-5.472-16.229-9.751-23.474l18.136-18.138l-32.178-32.178l-18.136,18.136
			c-7.241-4.279-15.127-7.575-23.473-9.73v-25.642H91.024l0.001,25.642c-8.346,2.155-16.233,5.452-23.473,9.732l-18.138-18.138
			L17.236,333.86l18.139,18.136c-4.28,7.244-7.603,15.121-9.751,23.474H0.001v45.507l25.624-0.001
			c2.149,8.353,5.471,16.228,9.75,23.473l-18.138,18.138l32.178,32.178l18.139-18.138c7.243,4.28,15.12,7.602,23.47,9.75L91.026,512
			h45.506v-25.623c8.353-2.149,16.229-5.472,23.473-9.751l18.139,18.138l32.178-32.178l-18.138-18.136
			c4.28-7.243,7.603-15.121,9.751-23.473L227.557,420.974z M113.779,455.113c-31.369,0-56.89-25.522-56.89-56.891
			s25.521-56.89,56.89-56.89c31.368,0,56.888,25.521,56.888,56.89S145.148,455.113,113.779,455.113z"/>
	</g>
</g>
<g>
	<g>
		<circle cx="113.779" cy="398.227" r="22.756"/>
	</g>
</g>
<g>
</g>
<g>
</g>
<g>
</g>
<g>
</g>
<g>
</g>
<g>
</g>
<g>
</g>
<g>
</g>
<g>
</g>
<g>
</g>
<g>
</g>
<g>
</g>
<g>
</g>
<g>
</g>
<g>
</g>
</svg>
