<svg style="display:none"><symbol viewBox="0 0 97.16 97.16" id="clock"> <g> <g> <path d="M48.58,0C21.793,0,0,21.793,0,48.58s21.793,48.58,48.58,48.58s48.58-21.793,48.58-48.58S75.367,0,48.58,0z M48.58,86.823
			c-21.087,0-38.244-17.155-38.244-38.243S27.493,10.337,48.58,10.337S86.824,27.492,86.824,48.58S69.667,86.823,48.58,86.823z"/> <path d="M73.898,47.08H52.066V20.83c0-2.209-1.791-4-4-4c-2.209,0-4,1.791-4,4v30.25c0,2.209,1.791,4,4,4h25.832
			c2.209,0,4-1.791,4-4S76.107,47.08,73.898,47.08z"/> </g> </g>                </symbol><symbol viewBox="0 0 512 512" id="gears"> <g> <g> <path d="M473.569,136.529c-3.225-12.526-8.189-24.351-14.609-35.216l27.189-27.189l-48.27-48.272l-27.19,27.189
			c-10.865-6.421-22.691-11.385-35.218-14.609V0h-68.267v38.431c-12.527,3.224-24.352,8.19-35.216,14.61l-27.193-27.191
			l-48.273,48.272l27.191,27.19c-6.421,10.865-11.386,22.69-14.61,35.217h-38.431v68.267h38.43
			c3.223,12.527,8.189,24.353,14.609,35.218l-27.19,27.189l48.273,48.273l27.189-27.189c10.865,6.421,22.69,11.386,35.217,14.61
			v38.429h68.267v-38.428c12.528-3.223,24.354-8.19,35.219-14.61l27.189,27.189l48.273-48.272l-27.189-27.189
			c6.421-10.865,11.386-22.691,14.61-35.22h38.429v0l0.001-68.266L473.569,136.529z M341.336,273.064
			c-56.465,0-102.401-45.936-102.401-102.401c0-56.465,45.937-102.401,102.401-102.401s102.401,45.936,102.401,102.401
			C443.737,227.128,397.8,273.064,341.336,273.064z"/> </g> </g> <g> <g> <path d="M341.336,113.773c-31.419,0-56.89,25.471-56.89,56.889c0,31.419,25.471,56.89,56.89,56.89s56.89-25.471,56.89-56.89
			C398.226,139.244,372.755,113.773,341.336,113.773z M341.336,193.419c-12.548,0-22.756-10.209-22.756-22.756
			c0-12.546,10.208-22.756,22.756-22.756s22.756,10.209,22.756,22.756C364.092,183.209,353.884,193.419,341.336,193.419z"/> </g> </g> <g> <g> <path d="M227.557,420.974V375.47h-25.622c-2.149-8.353-5.472-16.229-9.751-23.474l18.136-18.138l-32.178-32.178l-18.136,18.136
			c-7.241-4.279-15.127-7.575-23.473-9.73v-25.642H91.024l0.001,25.642c-8.346,2.155-16.233,5.452-23.473,9.732l-18.138-18.138
			L17.236,333.86l18.139,18.136c-4.28,7.244-7.603,15.121-9.751,23.474H0.001v45.507l25.624-0.001
			c2.149,8.353,5.471,16.228,9.75,23.473l-18.138,18.138l32.178,32.178l18.139-18.138c7.243,4.28,15.12,7.602,23.47,9.75L91.026,512
			h45.506v-25.623c8.353-2.149,16.229-5.472,23.473-9.751l18.139,18.138l32.178-32.178l-18.138-18.136
			c4.28-7.243,7.603-15.121,9.751-23.473L227.557,420.974z M113.779,455.113c-31.369,0-56.89-25.522-56.89-56.891
			s25.521-56.89,56.89-56.89c31.368,0,56.888,25.521,56.888,56.89S145.148,455.113,113.779,455.113z"/> </g> </g> <g> <g> <circle cx="113.779" cy="398.227" r="22.756"/> </g> </g>                </symbol><symbol viewBox="0 0 430.123 430.123" id="icon-behance"> <g> <path id="icon-behance-Behance" d="M388.432,119.12H280.659V92.35h107.782v26.77H388.432z M208.912,228.895
		c6.954,10.771,10.429,23.849,10.429,39.203c0,15.878-3.918,30.122-11.889,42.704c-5.071,8.326-11.367,15.359-18.932,21.021
		c-8.52,6.548-18.607,11.038-30.203,13.437c-11.633,2.403-24.224,3.617-37.787,3.617H0V81.247h129.25
		c32.579,0.53,55.676,9.969,69.315,28.506c8.184,11.369,12.239,25.011,12.239,40.868c0,16.362-4.104,29.454-12.368,39.401
		c-4.597,5.577-11.388,10.65-20.378,15.229C191.675,210.236,202.007,218.086,208.912,228.895z M61.722,186.76h56.632
		c11.638,0,21.046-2.212,28.292-6.634c7.241-4.415,10.854-12.263,10.854-23.531c0-12.449-4.784-20.712-14.375-24.689
		c-8.244-2.763-18.792-4.186-31.591-4.186H61.722V186.76z M162.953,264.275c0-13.902-5.682-23.513-17.023-28.67
		c-6.342-2.931-15.29-4.429-26.763-4.536H61.722v71.322h56.556c11.619,0,20.612-1.521,27.102-4.694
		C157.084,291.863,162.953,280.76,162.953,264.275z M428.419,220.736c1.302,8.756,1.891,21.46,1.652,38.065H290.493
		c0.77,19.266,7.421,32.739,20.035,40.449c7.607,4.835,16.83,7.196,27.63,7.196c11.388,0,20.67-2.879,27.815-8.797
		c3.893-3.137,7.327-7.565,10.296-13.152h51.16c-1.34,11.379-7.5,22.92-18.57,34.648c-17.151,18.641-41.205,27.988-72.097,27.988
		c-25.52,0-48.011-7.883-67.533-23.592C249.772,307.777,240,282.211,240,246.746c0-33.257,8.773-58.712,26.378-76.43
		c17.67-17.751,40.474-26.586,68.583-26.586c16.661,0,31.68,2.978,45.079,8.965c13.357,5.993,24.396,15.425,33.09,28.388
		C420.998,192.499,426.058,205.699,428.419,220.736z M378.062,225.73c-0.938-13.322-5.386-23.405-13.395-30.296
		c-7.943-6.91-17.866-10.379-29.706-10.379c-12.886,0-22.836,3.708-29.906,10.996c-7.118,7.273-11.547,17.161-13.362,29.68H378.062
		L378.062,225.73z"/> </g>                </symbol><symbol viewBox="0 0 438.533 438.533" id="icon-dribbble"> <g> <path d="M409.133,109.203c-19.608-33.592-46.205-60.189-79.798-79.796C295.736,9.801,259.058,0,219.273,0
		c-39.781,0-76.47,9.801-110.063,29.407c-33.595,19.604-60.192,46.201-79.8,79.796C9.801,142.8,0,179.489,0,219.267
		c0,39.78,9.804,76.463,29.407,110.062c19.607,33.592,46.204,60.189,79.799,79.798c33.597,19.605,70.283,29.407,110.063,29.407
		s76.47-9.802,110.065-29.407c33.593-19.602,60.189-46.206,79.795-79.798c19.603-33.596,29.403-70.284,29.403-110.062
		C438.533,179.485,428.732,142.795,409.133,109.203z M219.27,31.977c47.201,0,88.41,15.607,123.621,46.82l-3.569,4.993
		c-1.427,2.002-4.996,5.852-10.704,11.565c-5.709,5.708-11.943,11.136-18.699,16.274c-6.762,5.14-15.94,10.992-27.555,17.559
		c-11.611,6.567-23.982,12.328-37.117,17.276c-21.887-40.355-45.296-76.709-70.231-109.064
		C190.055,33.784,204.805,31.977,219.27,31.977z M72.524,103.06c18.271-23.026,40.537-40.73,66.806-53.1
		c23.601,31.405,46.82,67.381,69.662,107.921c-57.862,15.227-115.532,22.841-173.014,22.838
		C42.072,151.98,54.253,126.091,72.524,103.06z M44.54,286.794c-8.376-21.412-12.563-43.923-12.563-67.527
		c0-2.666,0.098-4.665,0.286-5.996c68.905,0,132.955-8.848,192.149-26.553c6.092,11.8,11.136,22.364,15.133,31.693
		c-0.771,0.38-1.999,0.806-3.713,1.283c-1.719,0.476-2.953,0.806-3.721,0.999l-10.561,3.711
		c-7.236,2.666-16.708,7.235-28.409,13.703c-11.704,6.478-24.123,14.182-37.257,23.13c-13.134,8.949-26.696,20.797-40.684,35.553
		c-13.99,14.75-25.743,30.591-35.26,47.53C64.713,327.381,52.914,308.2,44.54,286.794z M219.27,406.56
		c-44.54,0-84.32-14.277-119.343-42.825l4.283,3.142c6.661-14.66,16.462-28.746,29.408-42.257
		c12.944-13.511,25.41-24.413,37.401-32.695c11.991-8.274,25.028-16.077,39.115-23.414c14.084-7.323,23.691-11.991,28.835-13.983
		c5.14-1.998,9.233-3.572,12.278-4.716l0.568-0.287h0.575c18.647,48.916,31.977,96.313,39.968,142.184
		C268.756,401.611,244.397,406.557,219.27,406.56z M376.876,320.479c-14.086,21.796-31.696,39.834-52.817,54.104
		c-7.81-43.776-19.985-88.415-36.549-133.902c37.877-5.907,76.8-3.142,116.771,8.274
		C400.092,274.841,390.955,298.687,376.876,320.479z M403.706,216.698c-1.903-0.378-4.285-0.81-7.139-1.283
		c-2.854-0.473-6.331-1.047-10.424-1.713c-4.087-0.666-8.662-1.283-13.702-1.855c-5.045-0.571-10.421-1.093-16.136-1.569
		c-5.708-0.478-11.8-0.855-18.268-1.143c-6.479-0.284-13.042-0.428-19.705-0.428c-6.656,0-13.657,0.193-20.981,0.571
		c-7.326,0.375-14.414,1.049-21.265,1.999c-0.575-0.953-1.287-2.524-2.143-4.714c-0.855-2.187-1.479-3.855-1.848-4.997
		c-3.621-7.994-7.81-17.036-12.573-27.121c13.134-5.333,25.652-11.469,37.555-18.418c11.892-6.949,21.402-13.131,28.544-18.555
		c7.139-5.43,13.895-11.188,20.27-17.277c6.379-6.09,10.513-10.323,12.423-12.703c1.906-2.384,3.713-4.714,5.424-6.995l0.287-0.288
		c27.788,33.88,41.974,72.897,42.538,117.059L403.706,216.698z"/> </g>                </symbol><symbol viewBox="0 0 430.113 430.114" id="icon-fb"> <g> <path id="icon-fb-Facebook" d="M158.081,83.3c0,10.839,0,59.218,0,59.218h-43.385v72.412h43.385v215.183h89.122V214.936h59.805
		c0,0,5.601-34.721,8.316-72.685c-7.784,0-67.784,0-67.784,0s0-42.127,0-49.511c0-7.4,9.717-17.354,19.321-17.354
		c9.586,0,29.818,0,48.557,0c0-9.859,0-43.924,0-75.385c-25.016,0-53.476,0-66.021,0C155.878-0.004,158.081,72.48,158.081,83.3z"/> </g>                </symbol><symbol viewBox="0 0 90 90" id="icon-g+"> <g> <path id="icon-g+-Google" d="M74.499,0H50.144c-6.382,0-14.421,0.942-21.158,6.49c-5.09,4.374-7.566,10.392-7.566,15.828
		c0,9.211,7.094,18.546,19.625,18.546c1.182,0,2.477-0.12,3.787-0.235c-0.592,1.413-1.189,2.594-1.189,4.605
		c0,3.662,1.893,5.902,3.547,8.029c-5.314,0.353-15.249,0.942-22.583,5.428c-6.975,4.143-9.107,10.16-9.107,14.414
		C15.499,81.846,23.778,90,40.923,90c20.336,0,31.098-11.22,31.098-22.33c0-8.143-4.729-12.164-9.932-16.534l-4.258-3.305
		c-1.295-1.065-3.068-2.479-3.068-5.08c0-2.597,1.773-4.254,3.307-5.789c4.964-3.896,9.933-8.03,9.933-16.77
		c0-8.979-5.68-13.704-8.396-15.947h7.334L74.499,0z M64.103,72.279c0,7.322-6.033,12.753-17.385,12.753
		c-12.648,0-20.809-6.024-20.809-14.405c0-8.393,7.568-11.218,10.166-12.164c4.969-1.656,11.352-1.891,12.414-1.891
		c1.184,0,1.775,0,2.725,0.115C60.202,63.064,64.103,66.257,64.103,72.279z M54.642,34.249c-1.893,1.886-5.088,3.305-8.045,3.305
		c-10.164,0-14.772-13.113-14.772-21.023c0-3.072,0.592-6.258,2.598-8.74c1.893-2.362,5.201-3.899,8.277-3.899
		c9.812,0,14.899,13.229,14.899,21.73C57.599,27.752,57.358,31.528,54.642,34.249z"/> </g>                </symbol><symbol viewBox="0 0 430.117 430.117" id="icon-linkedin"> <g> <path id="icon-linkedin-LinkedIn" d="M430.117,261.543V420.56h-92.188V272.193c0-37.271-13.334-62.707-46.703-62.707
		c-25.473,0-40.632,17.142-47.301,33.724c-2.432,5.928-3.058,14.179-3.058,22.477V420.56h-92.219c0,0,1.242-251.285,0-277.32h92.21
		v39.309c-0.187,0.294-0.43,0.611-0.606,0.896h0.606v-0.896c12.251-18.869,34.13-45.824,83.102-45.824
		C384.633,136.724,430.117,176.361,430.117,261.543z M52.183,9.558C20.635,9.558,0,30.251,0,57.463
		c0,26.619,20.038,47.94,50.959,47.94h0.616c32.159,0,52.159-21.317,52.159-47.94C103.128,30.251,83.734,9.558,52.183,9.558z
		 M5.477,420.56h92.184v-277.32H5.477V420.56z"/> </g>                </symbol><symbol viewBox="0 0 357 357" id="icon-plus"> <g> <g id="icon-plus-add"> <path d="M357,204H204v153h-51V204H0v-51h153V0h51v153h153V204z"/> </g> </g>                </symbol><symbol viewBox="0 0 438.536 438.536" id="icon-skype"> <g> <path d="M415.7,262.093c3.039-14.657,4.564-28.935,4.564-42.826c0-27.218-5.276-53.247-15.844-78.087
		c-10.562-24.838-24.838-46.249-42.825-64.237C343.608,58.955,322.2,44.68,297.361,34.114
		c-24.845-10.559-50.866-15.843-78.088-15.843c-13.894,0-28.171,1.524-42.827,4.57C156.651,7.614,134.381,0,109.637,0
		C79.375,0,53.538,10.705,32.124,32.115c-21.416,21.416-32.12,47.253-32.12,77.516c0,24.744,7.614,47.014,22.839,66.809
		c-3.044,14.655-4.568,28.933-4.568,42.827c0,27.215,5.28,53.243,15.843,78.085c10.562,24.838,24.838,46.25,42.827,64.241
		c17.987,17.986,39.401,32.257,64.239,42.824c24.84,10.564,50.869,15.845,78.087,15.845c13.893,0,28.17-1.526,42.834-4.572
		c19.79,15.229,42.058,22.847,66.804,22.847c30.259,0,56.103-10.711,77.505-32.12c21.416-21.416,32.12-47.253,32.12-77.519
		C438.529,304.158,430.918,281.891,415.7,262.093z M325.472,304.49c-6.276,11.136-14.702,20.033-25.263,26.696
		c-10.567,6.663-22.224,11.748-34.975,15.273c-12.751,3.518-26.073,5.283-39.971,5.283c-32.163,0-59.855-6.235-83.078-18.705
		c-23.223-12.471-34.833-27.453-34.833-44.968c0-8.562,2.428-15.693,7.282-21.408c4.853-5.712,12.038-8.562,21.555-8.562
		c5.52,0,10.657,1.522,15.415,4.564c4.758,3.046,9.135,6.715,13.134,10.999c3.999,4.285,8.326,8.562,12.99,12.847
		c4.661,4.285,10.847,7.946,18.555,10.992c7.71,3.046,16.418,4.572,26.128,4.572c12.371,0,22.36-2.423,29.981-7.275
		c7.61-4.859,11.416-10.999,11.416-18.418c0-7.618-3.042-13.326-9.13-17.132c-4.182-2.673-14.846-6.098-31.977-10.283
		l-41.688-10.284c-11.419-2.662-21.222-5.752-29.408-9.271c-8.186-3.524-15.8-8.134-22.841-13.849
		c-7.039-5.708-12.369-12.891-15.986-21.555c-3.616-8.658-5.424-18.796-5.424-30.406c0-13.896,3.189-26.121,9.563-36.688
		c6.374-10.565,14.849-18.846,25.409-24.841c10.562-5.996,21.935-10.468,34.119-13.418c12.179-2.951,24.742-4.426,37.685-4.426
		c18.276,0,35.589,2.19,51.961,6.567c16.368,4.377,29.882,10.801,40.538,19.271c10.657,8.473,15.985,17.942,15.985,28.409
		c0,8.562-2.707,15.893-8.138,21.982c-5.414,6.088-12.601,9.134-21.55,9.134c-4.948,0-9.514-1.143-13.702-3.427
		c-4.186-2.283-7.99-5.042-11.423-8.278c-3.426-3.234-7.047-6.423-10.852-9.563c-3.806-3.14-8.946-5.852-15.41-8.136
		c-6.479-2.284-13.802-3.427-21.986-3.427c-27.406,0-41.112,7.323-41.112,21.982c0,3.234,0.715,6.09,2.141,8.564
		c1.427,2.474,3,4.473,4.71,5.996c1.709,1.525,4.565,3.046,8.564,4.57c3.999,1.525,7.33,2.622,9.994,3.284
		c2.663,0.666,6.854,1.665,12.562,2.996l29.694,6.851c9.325,2.096,17.648,4.286,24.981,6.567c7.331,2.288,15.181,5.521,23.555,9.71
		c8.374,4.187,15.321,8.848,20.838,13.988c5.523,5.144,10.137,11.656,13.853,19.555c3.714,7.901,5.564,16.61,5.564,26.124
		C334.896,280.84,331.761,293.357,325.472,304.49z"/> </g>                </symbol><symbol viewBox="0 0 256 209" id="icon-twi"><path d="M256 25.45a105.04 105.04 0 0 1-30.166 8.27c10.845-6.5 19.172-16.793 23.093-29.057a105.183 105.183 0 0 1-33.351 12.745C205.995 7.201 192.346.822 177.239.822c-29.006 0-52.523 23.516-52.523 52.52 0 4.117.465 8.125 1.36 11.97-43.65-2.191-82.35-23.1-108.255-54.876-4.52 7.757-7.11 16.78-7.11 26.404 0 18.222 9.273 34.297 23.365 43.716a52.312 52.312 0 0 1-23.79-6.57c-.003.22-.003.44-.003.661 0 25.447 18.104 46.675 42.13 51.5a52.592 52.592 0 0 1-23.718.9c6.683 20.866 26.08 36.05 49.062 36.475-17.975 14.086-40.622 22.483-65.228 22.483-4.24 0-8.42-.249-12.529-.734 23.243 14.902 50.85 23.597 80.51 23.597 96.607 0 149.434-80.031 149.434-149.435 0-2.278-.05-4.543-.152-6.795A106.748 106.748 0 0 0 256 25.45"/></symbol><symbol viewBox="0 0 611.991 611.99" id="pencil"> <g> <path d="M605.042,197.688L414.315,6.999c-9.281-9.281-24.319-9.281-33.582,0L310.124,77.59L45.801,341.95l-0.096,0.038v0.097
		l-5.103,5.103c-3.62,3.582-5.95,8.203-6.682,13.268L0.262,584.686C-0.855,592.1,1.648,599.628,6.943,605
		c4.544,4.448,10.571,6.952,16.791,6.952c1.213,0,2.33-0.097,3.524-0.289l224.327-33.543c5.007-0.79,9.744-3.101,13.268-6.721
		l269.616-269.559l70.592-70.61C614.303,221.987,614.303,206.968,605.042,197.688z M253.242,515.886l-31.444-31.483l230.817-230.816
		l31.463,31.502L253.242,515.886z M62.13,492.471l13.075-87.401l131.747,131.747l-87.401,13.036L62.13,492.471z M419.033,220.004
		L188.215,450.821l-26.996-26.958l230.817-230.816l13.44,13.498L419.033,220.004z M326.895,127.963l31.56,31.502L127.618,390.281
		l-31.541-31.502L326.895,127.963z M517.66,251.487l-48.255-48.235v-0.039h-0.096l-30.231-30.25l-78.582-78.582l37.028-37.009
		l157.145,157.105L517.66,251.487z"/> </g>                </symbol><symbol viewBox="0 0 27.442 27.442" id="phone"> <g> <path d="M19.494,0H7.948C6.843,0,5.951,0.896,5.951,1.999v23.446c0,1.102,0.892,1.997,1.997,1.997h11.546
		c1.103,0,1.997-0.895,1.997-1.997V1.999C21.491,0.896,20.597,0,19.494,0z M10.872,1.214h5.7c0.144,0,0.261,0.215,0.261,0.481
		s-0.117,0.482-0.261,0.482h-5.7c-0.145,0-0.26-0.216-0.26-0.482C10.612,1.429,10.727,1.214,10.872,1.214z M13.722,25.469
		c-0.703,0-1.275-0.572-1.275-1.276s0.572-1.274,1.275-1.274c0.701,0,1.273,0.57,1.273,1.274S14.423,25.469,13.722,25.469z
		 M19.995,21.1H7.448V3.373h12.547V21.1z"/>                </g>                </symbol></svg>